<?xml version="1.0" encoding="UTF-8" standalone="no"?>
<!DOCTYPE svg PUBLIC "-//W3C//DTD SVG 1.1//EN"
"http://www.w3.org/Graphics/SVG/1.1/DTD/svg11.dtd">
<svg viewBox="0 0 909 1286" version="1.1" xmlns="http://www.w3.org/2000/svg" xmlns:xlink="http://www.w3.org/1999/xlink">
<defs>
<clipPath id="c0"><path d="M0,1283.8V0H908.8V1283.8Z"/></clipPath>
<clipPath id="c1"><path d="M809.7,148.4c-31.3,0,-56.6,-25.4,-56.6,-56.6c0,-31.2,25.3,-56.5,56.6,-56.5c31.2,0,56.5,25.3,56.5,56.5c0,31.2,-25.3,56.6,-56.5,56.6Z"/></clipPath>
<style type="text/css"><![CDATA[
.g0{
fill: #FFF;
}
.g1{
fill: #313C4E;
}
.g2{
fill: #222A33;
}
.g3{
fill: #449399;
}
.g4{
fill: #B2B2B2;
}
]]></style>
</defs>
<path clip-path="url(#c0)" d="M0,0H908.8V1283.8H0V0Z" class="g0"/>
<path d="M0,0H908.8V283.2H0V0Z" class="g1"/>
<path d="M0,181.6H908.8V283.2H0V181.6Z" class="g2"/>
<path d="M49.4,204.9c-.4,0,-.7,-.2,-1,-.4l-8,-8v11.1c0,.7,.6,1.3,1.3,1.4l4.5,-4.5c.2,-.2,.5,-.2,.7,0c.2,.2,.2,.5,0,.7L43,209H55.8l-3.9,-3.8c-.2,-.2,-.2,-.5,0,-.7c.2,-.2,.5,-.2,.7,0l4.5,4.5c.7,-.1,1.3,-.7,1.3,-1.4V196.5l-8,8c-.3,.2,-.6,.4,-1,.4Z" class="g0"/>
<path d="M49.7,203.8l8.4,-8.3c-.3,-.4,-.7,-.6,-1.1,-.6H41.8c-.4,0,-.8,.2,-1.1,.6l8.4,8.3c.2,.2,.5,.2,.6,0Z" class="g0"/>
<path d="M490.5,207.7c0,.2,-.2,.4,-.5,.4c-.3,0,-.5,-.2,-.5,-.4c0,-.3,.2,-.5,.5,-.5c.3,0,.5,.2,.5,.5Z" class="g0"/>
<path d="M494.3,193h-8.5c-.8,0,-1.4,.6,-1.4,1.4v15.1c0,.8,.6,1.5,1.4,1.5h8.5c.7,0,1.4,-.7,1.4,-1.5V194.4c0,-.8,-.7,-1.4,-1.4,-1.4ZM490,209.1c-.8,0,-1.4,-.7,-1.4,-1.4c0,-.8,.6,-1.5,1.4,-1.5c.8,0,1.4,.7,1.4,1.5c0,.7,-.6,1.4,-1.4,1.4Zm1.4,-12.3h-2.8c-.3,0,-.5,-.2,-.5,-.5c0,-.3,.2,-.5,.5,-.5h2.8c.2,0,.4,.1,.5,.3c0,.1,0,.3,0,.4c-.1,.2,-.3,.3,-.5,.3Z" class="g0"/>
<path d="M49.5,226.7c-.8,0,-1.5,.7,-1.5,1.5c0,.9,.7,1.6,1.5,1.6c.9,0,1.6,-.7,1.6,-1.6c0,-.8,-.7,-1.5,-1.6,-1.5Z" class="g0"/>
<path d="M49.5,223.4c-2.6,0,-4.7,2.1,-4.7,4.7c0,4,1.5,9.9,4,12.7c.2,.2,.5,.3,.7,.3c.3,0,.5,-.1,.7,-.3c2.5,-2.8,4,-8.7,4,-12.7c0,-2.6,-2.1,-4.7,-4.7,-4.7Zm0,7.3c-1.4,0,-2.5,-1.1,-2.5,-2.5c0,-1.3,1.1,-2.5,2.5,-2.5c1.4,0,2.5,1.2,2.5,2.5c0,1.4,-1.1,2.5,-2.5,2.5Z" class="g0"/>
<path d="M496.9,224.3H483.2c-.4,0,-.7,.1,-.9,.4c-.2,.2,-.3,.5,-.3,.8v13.7c0,.3,.1,.6,.3,.8c.2,.3,.5,.4,.9,.4h13.7c.3,0,.6,-.1,.8,-.4c.2,-.2,.4,-.5,.4,-.8V225.5c0,-.3,-.2,-.6,-.4,-.8c-.2,-.3,-.5,-.4,-.8,-.4ZM486.7,238h-2.4v-7.6h2.4V238Zm-1.2,-8.7c-.7,0,-1.3,-.6,-1.3,-1.4c0,-.8,.6,-1.4,1.3,-1.4c.8,0,1.4,.6,1.4,1.4c0,.8,-.6,1.4,-1.4,1.4Zm10.2,8.7h-2.4v-3.7c0,-.9,0,-2,-1.2,-2c-1.3,0,-1.5,.9,-1.5,1.9V238h-2.4v-7.6h2.3v1h.1c.4,-.8,1.3,-1.3,2.2,-1.2c2.4,0,2.9,1.6,2.9,3.6V238Z" class="g0"/>
<path fill-rule="evenodd" d="M49.4,254.2c-4.2,0,-7.7,3,-8.4,7.2c-.7,4.1,1.8,8.1,5.7,9.4c.4,.1,.6,-.2,.6,-.4c0,-.2,0,-.7,0,-1.5c-2.4,.6,-2.9,-1.1,-2.9,-1.1c-.1,-.5,-.5,-1,-.9,-1.2c-.8,-.6,0,-.6,0,-.6c.6,.1,1.1,.4,1.3,.9c.3,.4,.7,.8,1.1,.9c.5,.1,1,.1,1.4,-.2c0,-.4,.2,-.8,.6,-1.1C46,266.3,44,265.5,44,262.3c0,-.9,.3,-1.7,.8,-2.3c-.2,-.7,-.2,-1.5,.1,-2.3c0,0,.7,-.2,2.4,.9c1.4,-.4,2.8,-.4,4.2,0c1.7,-1.1,2.4,-.9,2.4,-.9c.3,.8,.3,1.6,.1,2.3c.5,.6,.8,1.4,.8,2.3c0,3.3,-2,4,-3.9,4.2c.5,.4,.7,1,.6,1.6c0,1.1,0,2,0,2.3c0,.2,.2,.5,.6,.4c4,-1.3,6.4,-5.3,5.7,-9.4c-.7,-4.2,-4.2,-7.2,-8.4,-7.2Z" class="g0"/>
<path d="M38.1,335.9h207v2.8H38.1v-2.8Z" class="g3"/>
<path d="M41,437.5c-1.6,0,-2.9,1.3,-2.9,2.9c0,1.7,1.3,3,2.9,3c1.7,0,3,-1.3,3,-3c0,-1.6,-1.3,-2.9,-3,-2.9Z" class="g3"/>
<path d="M41,460.2c-1.6,0,-2.9,1.3,-2.9,2.9c0,1.7,1.3,3,2.9,3c1.7,0,3,-1.3,3,-3c0,-1.6,-1.3,-2.9,-3,-2.9Z" class="g3"/>
<path d="M41,482.9c-1.6,0,-2.9,1.3,-2.9,2.9c0,1.7,1.3,3,2.9,3c1.7,0,3,-1.3,3,-3c0,-1.6,-1.3,-2.9,-3,-2.9Z" class="g3"/>
<path d="M41,624.3c-1.6,0,-2.9,1.3,-2.9,2.9c0,1.7,1.3,3,2.9,3c1.7,0,3,-1.3,3,-3c0,-1.6,-1.3,-2.9,-3,-2.9Z" class="g3"/>
<path d="M41,647c-1.6,0,-2.9,1.3,-2.9,2.9c0,1.7,1.3,3,2.9,3c1.7,0,3,-1.3,3,-3C44,648.3,42.7,647,41,647Z" class="g3"/>
<path d="M41,669.6c-1.6,0,-2.9,1.4,-2.9,3c0,1.7,1.3,3,2.9,3c1.7,0,3,-1.3,3,-3c0,-1.6,-1.3,-3,-3,-3Z" class="g3"/>
<path d="M41,811.1c-1.6,0,-2.9,1.3,-2.9,2.9c0,1.7,1.3,3,2.9,3c1.7,0,3,-1.3,3,-3c0,-1.6,-1.3,-2.9,-3,-2.9Z" class="g3"/>
<path d="M41,850.5c-1.6,0,-2.9,1.3,-2.9,3c0,1.6,1.3,2.9,2.9,2.9c1.7,0,3,-1.3,3,-2.9c0,-1.7,-1.3,-3,-3,-3Z" class="g3"/>
<path d="M41,890c-1.6,0,-2.9,1.3,-2.9,2.9c0,1.7,1.3,3,2.9,3c1.7,0,3,-1.3,3,-3C44,891.3,42.7,890,41,890Z" class="g3"/>
<path d="M38.1,998.5H167.6v2.8H38.1v-2.8Z" class="g3"/>
<path d="M41,1100.1c-1.6,0,-2.9,1.3,-2.9,3c0,1.7,1.3,3,2.9,3c1.7,0,3,-1.3,3,-3c0,-1.7,-1.3,-3,-3,-3Z" class="g3"/>
<path d="M41,1217.4c-1.6,0,-2.9,1.4,-2.9,3c0,1.7,1.3,3,2.9,3c1.7,0,3,-1.3,3,-3c0,-1.6,-1.3,-3,-3,-3Z" class="g3"/>
<path d="M481.8,335.9h75.8v2.8H481.8v-2.8Z" class="g3"/>
<path fill-rule="evenodd" d="M486.4,355.1h59c2.5,0,4.5,2,4.5,4.5v16.8c0,2.5,-2,4.5,-4.5,4.5h-59c-2.6,0,-4.6,-2,-4.6,-4.5V359.6c0,-2.5,2,-4.5,4.6,-4.5Z" class="g1"/>
<path fill-rule="evenodd" d="M561.8,355.1h44.3c2.5,0,4.5,2,4.5,4.5v16.8c0,2.5,-2,4.5,-4.5,4.5H561.8c-2.5,0,-4.6,-2,-4.6,-4.5V359.6c0,-2.5,2.1,-4.5,4.6,-4.5Z" class="g1"/>
<path fill-rule="evenodd" d="M622.5,355.1H706c2.5,0,4.5,2,4.5,4.5v16.8c0,2.5,-2,4.5,-4.5,4.5H622.5c-2.5,0,-4.5,-2,-4.5,-4.5V359.6c0,-2.5,2,-4.5,4.5,-4.5Z" class="g1"/>
<path fill-rule="evenodd" d="M486.4,388.2H628.1c2.5,0,4.5,2.1,4.5,4.6v16.7c0,2.5,-2,4.6,-4.5,4.6H486.4c-2.6,0,-4.6,-2.1,-4.6,-4.6V392.8c0,-2.5,2,-4.6,4.6,-4.6Z" class="g1"/>
<path fill-rule="evenodd" d="M644.5,388.2h68.4c2.5,0,4.6,2.1,4.6,4.6v16.7c0,2.5,-2.1,4.6,-4.6,4.6H644.5c-2.5,0,-4.5,-2.1,-4.5,-4.6V392.8c0,-2.5,2,-4.6,4.5,-4.6Z" class="g1"/>
<path fill-rule="evenodd" d="M729.4,388.2h69.8c2.5,0,4.5,2.1,4.5,4.6v16.7c0,2.5,-2,4.6,-4.5,4.6H729.4c-2.6,0,-4.6,-2.1,-4.6,-4.6V392.8c0,-2.5,2,-4.6,4.6,-4.6Z" class="g1"/>
<path fill-rule="evenodd" d="M486.4,421.4H545c2.5,0,4.5,2,4.5,4.5v16.8c0,2.5,-2,4.5,-4.5,4.5H486.4c-2.6,0,-4.6,-2,-4.6,-4.5V425.9c0,-2.5,2,-4.5,4.6,-4.5Z" class="g1"/>
<path fill-rule="evenodd" d="M561.4,421.4h61.5c2.5,0,4.5,2,4.5,4.5v16.8c0,2.5,-2,4.5,-4.5,4.5H561.4c-2.5,0,-4.5,-2,-4.5,-4.5V425.9c0,-2.5,2,-4.5,4.5,-4.5Z" class="g1"/>
<path fill-rule="evenodd" d="M639.3,421.4h84.5c2.5,0,4.5,2,4.5,4.5v16.8c0,2.5,-2,4.5,-4.5,4.5H639.3c-2.5,0,-4.6,-2,-4.6,-4.5V425.9c0,-2.5,2.1,-4.5,4.6,-4.5Z" class="g1"/>
<path fill-rule="evenodd" d="M740.2,421.4h71.2c2.5,0,4.5,2,4.5,4.5v16.8c0,2.5,-2,4.5,-4.5,4.5H740.2c-2.5,0,-4.6,-2,-4.6,-4.5V425.9c0,-2.5,2.1,-4.5,4.6,-4.5Z" class="g1"/>
<path fill-rule="evenodd" d="M486.4,454.6H604c2.5,0,4.5,2,4.5,4.5v16.8c0,2.5,-2,4.5,-4.5,4.5H486.4c-2.6,0,-4.6,-2,-4.6,-4.5V459.1c0,-2.5,2,-4.5,4.6,-4.5Z" class="g1"/>
<path fill-rule="evenodd" d="M620.4,454.6h117c2.5,0,4.5,2,4.5,4.5v16.8c0,2.5,-2,4.5,-4.5,4.5h-117c-2.5,0,-4.5,-2,-4.5,-4.5V459.1c0,-2.5,2,-4.5,4.5,-4.5Z" class="g1"/>
<path d="M481.8,558.6H713.6v2.8H481.8v-2.8Z" class="g3"/>
<path d="M481.8,663.7H615.9v2.8H481.8v-2.8Z" class="g3"/>
<path d="M481.8,826.1H600.5v2.8H481.8v-2.8Z" class="g3"/>
<path fill-rule="evenodd" d="M486.4,845.3H587.6c2.5,0,4.5,2,4.5,4.5v19.6c0,2.5,-2,4.5,-4.5,4.5H486.4c-2.6,0,-4.6,-2,-4.6,-4.5V849.8c0,-2.5,2,-4.5,4.6,-4.5Zm0,1.4H587.6c1.7,0,3.1,1.4,3.1,3.1v19.6c0,1.7,-1.4,3.1,-3.1,3.1H486.4c-1.8,0,-3.2,-1.4,-3.2,-3.1V849.8c0,-1.7,1.4,-3.1,3.2,-3.1Z" class="g4"/>
<path fill-rule="evenodd" d="M604,845.3h66.7c2.5,0,4.5,2,4.5,4.5v19.6c0,2.5,-2,4.5,-4.5,4.5H604c-2.5,0,-4.5,-2,-4.5,-4.5V849.8c0,-2.5,2,-4.5,4.5,-4.5Zm0,1.4h66.7c1.7,0,3.1,1.4,3.1,3.1v19.6c0,1.7,-1.4,3.1,-3.1,3.1H604c-1.7,0,-3.1,-1.4,-3.1,-3.1V849.8c0,-1.7,1.4,-3.1,3.1,-3.1Z" class="g4"/>
<path fill-rule="evenodd" d="M687.1,845.3h91.1c2.5,0,4.6,2,4.6,4.5v19.6c0,2.5,-2.1,4.5,-4.6,4.5H687.1c-2.5,0,-4.5,-2,-4.5,-4.5V849.8c0,-2.5,2,-4.5,4.5,-4.5Zm0,1.4h91.1c1.8,0,3.2,1.4,3.2,3.1v19.6c0,1.7,-1.4,3.1,-3.2,3.1H687.1c-1.7,0,-3.1,-1.4,-3.1,-3.1V849.8c0,-1.7,1.4,-3.1,3.1,-3.1Z" class="g4"/>
<path fill-rule="evenodd" d="M486.4,881.2H638.6c2.5,0,4.5,2.1,4.5,4.6v19.5c0,2.5,-2,4.6,-4.5,4.6H486.4c-2.6,0,-4.6,-2.1,-4.6,-4.6V885.8c0,-2.5,2,-4.6,4.6,-4.6Zm0,1.4H638.6c1.7,0,3.1,1.4,3.1,3.2v19.5c0,1.8,-1.4,3.2,-3.1,3.2H486.4c-1.8,0,-3.2,-1.4,-3.2,-3.2V885.8c0,-1.8,1.4,-3.2,3.2,-3.2Z" class="g4"/>
<path fill-rule="evenodd" d="M655,881.2H786.6c2.5,0,4.5,2.1,4.5,4.6v19.5c0,2.5,-2,4.6,-4.5,4.6H655c-2.5,0,-4.6,-2.1,-4.6,-4.6V885.8c0,-2.5,2.1,-4.6,4.6,-4.6Zm0,1.4H786.6c1.7,0,3.2,1.4,3.2,3.2v19.5c0,1.8,-1.5,3.2,-3.2,3.2H655c-1.7,0,-3.2,-1.4,-3.2,-3.2V885.8c0,-1.8,1.5,-3.2,3.2,-3.2Z" class="g4"/>
<path fill-rule="evenodd" d="M486.4,917.2H553c2.5,0,4.6,2,4.6,4.5v19.6c0,2.5,-2.1,4.5,-4.6,4.5H486.4c-2.6,0,-4.6,-2,-4.6,-4.5V921.7c0,-2.5,2,-4.5,4.6,-4.5Zm0,1.4H553c1.8,0,3.2,1.4,3.2,3.1v19.6c0,1.7,-1.4,3.1,-3.2,3.1H486.4c-1.8,0,-3.2,-1.4,-3.2,-3.1V921.7c0,-1.7,1.4,-3.1,3.2,-3.1Z" class="g4"/>
<path fill-rule="evenodd" d="M809.7,31.4c33.3,0,60.4,27.1,60.4,60.4c0,33.4,-27.1,60.4,-60.4,60.4c-33.4,0,-60.4,-27,-60.4,-60.4c0,-33.3,27,-60.4,60.4,-60.4Z" class="g3"/>
<path fill-rule="evenodd" d="M809.7,30.7c33.7,0,61.1,27.4,61.1,61.1c0,33.8,-27.4,61.1,-61.1,61.1c-33.8,0,-61.1,-27.3,-61.1,-61.1c0,-33.7,27.3,-61.1,61.1,-61.1Zm0,4.6c31.2,0,56.5,25.3,56.5,56.5c0,31.2,-25.3,56.6,-56.5,56.6c-31.3,0,-56.6,-25.4,-56.6,-56.6c0,-31.2,25.3,-56.5,56.6,-56.5Z" class="g3"/>
<image clip-path="url(#c1)" preserveAspectRatio="none" x="753" y="35" width="113" height="113" xlink:href="img/1.jpg"/>
</svg>